{
  "cells": [
    {
      "cell_type": "markdown",
      "metadata": {
        "id": "TvL6GEYQy7Sj"
      },
      "source": [
        "# Downloading Dependencies"
      ]
    },
    {
      "cell_type": "code",
      "execution_count": null,
      "metadata": {
        "colab": {
          "base_uri": "https://localhost:8080/"
        },
        "id": "Vn_Yu9CAvKIo",
        "outputId": "78e5fe3e-5186-4615-d361-ca6b949bb57e"
      },
      "outputs": [
        {
          "output_type": "stream",
          "name": "stdout",
          "text": [
            "Looking in indexes: https://pypi.org/simple, https://us-python.pkg.dev/colab-wheels/public/simple/\n",
            "Requirement already satisfied: requests in /usr/local/lib/python3.8/dist-packages (2.25.1)\n",
            "Collecting pydub\n",
            "  Downloading pydub-0.25.1-py2.py3-none-any.whl (32 kB)\n",
            "Requirement already satisfied: urllib3<1.27,>=1.21.1 in /usr/local/lib/python3.8/dist-packages (from requests) (1.24.3)\n",
            "Requirement already satisfied: chardet<5,>=3.0.2 in /usr/local/lib/python3.8/dist-packages (from requests) (4.0.0)\n",
            "Requirement already satisfied: certifi>=2017.4.17 in /usr/local/lib/python3.8/dist-packages (from requests) (2022.12.7)\n",
            "Requirement already satisfied: idna<3,>=2.5 in /usr/local/lib/python3.8/dist-packages (from requests) (2.10)\n",
            "Installing collected packages: pydub\n",
            "Successfully installed pydub-0.25.1\n"
          ]
        }
      ],
      "source": [
        "!pip install requests pydub\n",
        "# We'll need this library to use GPU and make rendering faster\n",
        "!pip install nvidia-ml-py3"
      ]
    },
    {
      "cell_type": "markdown",
      "metadata": {
        "id": "Q9hPvsx_zDbR"
      },
      "source": [
        "# Downloading a video from the web"
      ]
    },
    {
      "cell_type": "markdown",
      "metadata": {
        "id": "Olj-oQpbvbAU"
      },
      "source": [
        "In this code, you need to replace 'http://example.com/path/to/video.mp4' with the actual link of the video you want to download. The video will be saved in the current working directory with the name 'video.mp4'.\n",
        "\n",
        "Please note that downloading copyrighted content without permission is illegal in most countries."
      ]
    },
    {
      "cell_type": "code",
      "execution_count": null,
      "metadata": {
        "id": "kI6nxPOvvISj"
      },
      "outputs": [],
      "source": [
        "import requests\n",
        "import shutil\n",
        "\n",
        "url = 'https://vod-progressive.akamaized.net/exp=1674650078~acl=%2Fvimeo-prod-skyfire-std-us%2F01%2F815%2F25%2F629077504%2F2897497436.mp4~hmac=f8cbe9c1193249e61fa668985dd3000225eaa1802f6dc7a3b5a5f15ae20053fe/vimeo-prod-skyfire-std-us/01/815/25/629077504/2897497436.mp4?download=1&filename=pexels-cottonbro-9861595.mp4'\n",
        "response = requests.get(url, stream=True)\n",
        "with open('video.mp4', 'wb') as out_file:\n",
        "    shutil.copyfileobj(response.raw, out_file)\n",
        "del response"
      ]
    },
    {
      "cell_type": "code",
      "execution_count": null,
      "metadata": {
        "colab": {
          "base_uri": "https://localhost:8080/"
        },
        "id": "LB2ulHB45d1l",
        "outputId": "0474384a-aa77-411d-d362-fc17a3916ce6"
      },
      "outputs": [
        {
          "output_type": "execute_result",
          "data": {
            "text/plain": [
              "('input1.wav', <http.client.HTTPMessage at 0x7fe508a94f40>)"
            ]
          },
          "metadata": {},
          "execution_count": 7
        }
      ],
      "source": [
        "import urllib.request\n",
        "\n",
        "audio_url = \"https://cdn.freesound.org/sounds/444/444838-3634788c-2109-4093-b09b-a67bf665503c?filename=444838__cueckermann__waterfall-with-nature-surrounding-ambience.wav\"\n",
        "urllib.request.urlretrieve(audio_url, \"input1.wav\")"
      ]
    },
    {
      "cell_type": "code",
      "source": [
        "audio_url = \"https://quicksounds.com/uploads/tracks/21701977_268120182_1094879698.mp3\"\n",
        "urllib.request.urlretrieve(audio_url, \"input2.wav\")"
      ],
      "metadata": {
        "colab": {
          "base_uri": "https://localhost:8080/",
          "height": 345
        },
        "id": "8oKrqRrHK0jt",
        "outputId": "406d9a31-ff10-4a76-fdef-e791d31acf6b"
      },
      "execution_count": null,
      "outputs": [
        {
          "output_type": "error",
          "ename": "HTTPError",
          "evalue": "ignored",
          "traceback": [
            "\u001b[0;31m---------------------------------------------------------------------------\u001b[0m",
            "\u001b[0;31mHTTPError\u001b[0m                                 Traceback (most recent call last)",
            "\u001b[0;32m<ipython-input-8-70c5d051dce6>\u001b[0m in \u001b[0;36m<module>\u001b[0;34m\u001b[0m\n\u001b[1;32m      2\u001b[0m \u001b[0;34m\u001b[0m\u001b[0m\n\u001b[1;32m      3\u001b[0m \u001b[0maudio_url\u001b[0m \u001b[0;34m=\u001b[0m \u001b[0;34m\"https://quicksounds.com/uploads/tracks/21701977_268120182_1094879698.mp3\"\u001b[0m\u001b[0;34m\u001b[0m\u001b[0;34m\u001b[0m\u001b[0m\n\u001b[0;32m----> 4\u001b[0;31m \u001b[0murllib\u001b[0m\u001b[0;34m.\u001b[0m\u001b[0mrequest\u001b[0m\u001b[0;34m.\u001b[0m\u001b[0murlretrieve\u001b[0m\u001b[0;34m(\u001b[0m\u001b[0maudio_url\u001b[0m\u001b[0;34m,\u001b[0m \u001b[0;34m\"input2.wav\"\u001b[0m\u001b[0;34m)\u001b[0m\u001b[0;34m\u001b[0m\u001b[0;34m\u001b[0m\u001b[0m\n\u001b[0m",
            "\u001b[0;32m/usr/lib/python3.8/urllib/request.py\u001b[0m in \u001b[0;36murlretrieve\u001b[0;34m(url, filename, reporthook, data)\u001b[0m\n\u001b[1;32m    245\u001b[0m     \u001b[0murl_type\u001b[0m\u001b[0;34m,\u001b[0m \u001b[0mpath\u001b[0m \u001b[0;34m=\u001b[0m \u001b[0m_splittype\u001b[0m\u001b[0;34m(\u001b[0m\u001b[0murl\u001b[0m\u001b[0;34m)\u001b[0m\u001b[0;34m\u001b[0m\u001b[0;34m\u001b[0m\u001b[0m\n\u001b[1;32m    246\u001b[0m \u001b[0;34m\u001b[0m\u001b[0m\n\u001b[0;32m--> 247\u001b[0;31m     \u001b[0;32mwith\u001b[0m \u001b[0mcontextlib\u001b[0m\u001b[0;34m.\u001b[0m\u001b[0mclosing\u001b[0m\u001b[0;34m(\u001b[0m\u001b[0murlopen\u001b[0m\u001b[0;34m(\u001b[0m\u001b[0murl\u001b[0m\u001b[0;34m,\u001b[0m \u001b[0mdata\u001b[0m\u001b[0;34m)\u001b[0m\u001b[0;34m)\u001b[0m \u001b[0;32mas\u001b[0m \u001b[0mfp\u001b[0m\u001b[0;34m:\u001b[0m\u001b[0;34m\u001b[0m\u001b[0;34m\u001b[0m\u001b[0m\n\u001b[0m\u001b[1;32m    248\u001b[0m         \u001b[0mheaders\u001b[0m \u001b[0;34m=\u001b[0m \u001b[0mfp\u001b[0m\u001b[0;34m.\u001b[0m\u001b[0minfo\u001b[0m\u001b[0;34m(\u001b[0m\u001b[0;34m)\u001b[0m\u001b[0;34m\u001b[0m\u001b[0;34m\u001b[0m\u001b[0m\n\u001b[1;32m    249\u001b[0m \u001b[0;34m\u001b[0m\u001b[0m\n",
            "\u001b[0;32m/usr/lib/python3.8/urllib/request.py\u001b[0m in \u001b[0;36murlopen\u001b[0;34m(url, data, timeout, cafile, capath, cadefault, context)\u001b[0m\n\u001b[1;32m    220\u001b[0m     \u001b[0;32melse\u001b[0m\u001b[0;34m:\u001b[0m\u001b[0;34m\u001b[0m\u001b[0;34m\u001b[0m\u001b[0m\n\u001b[1;32m    221\u001b[0m         \u001b[0mopener\u001b[0m \u001b[0;34m=\u001b[0m \u001b[0m_opener\u001b[0m\u001b[0;34m\u001b[0m\u001b[0;34m\u001b[0m\u001b[0m\n\u001b[0;32m--> 222\u001b[0;31m     \u001b[0;32mreturn\u001b[0m \u001b[0mopener\u001b[0m\u001b[0;34m.\u001b[0m\u001b[0mopen\u001b[0m\u001b[0;34m(\u001b[0m\u001b[0murl\u001b[0m\u001b[0;34m,\u001b[0m \u001b[0mdata\u001b[0m\u001b[0;34m,\u001b[0m \u001b[0mtimeout\u001b[0m\u001b[0;34m)\u001b[0m\u001b[0;34m\u001b[0m\u001b[0;34m\u001b[0m\u001b[0m\n\u001b[0m\u001b[1;32m    223\u001b[0m \u001b[0;34m\u001b[0m\u001b[0m\n\u001b[1;32m    224\u001b[0m \u001b[0;32mdef\u001b[0m \u001b[0minstall_opener\u001b[0m\u001b[0;34m(\u001b[0m\u001b[0mopener\u001b[0m\u001b[0;34m)\u001b[0m\u001b[0;34m:\u001b[0m\u001b[0;34m\u001b[0m\u001b[0;34m\u001b[0m\u001b[0m\n",
            "\u001b[0;32m/usr/lib/python3.8/urllib/request.py\u001b[0m in \u001b[0;36mopen\u001b[0;34m(self, fullurl, data, timeout)\u001b[0m\n\u001b[1;32m    529\u001b[0m         \u001b[0;32mfor\u001b[0m \u001b[0mprocessor\u001b[0m \u001b[0;32min\u001b[0m \u001b[0mself\u001b[0m\u001b[0;34m.\u001b[0m\u001b[0mprocess_response\u001b[0m\u001b[0;34m.\u001b[0m\u001b[0mget\u001b[0m\u001b[0;34m(\u001b[0m\u001b[0mprotocol\u001b[0m\u001b[0;34m,\u001b[0m \u001b[0;34m[\u001b[0m\u001b[0;34m]\u001b[0m\u001b[0;34m)\u001b[0m\u001b[0;34m:\u001b[0m\u001b[0;34m\u001b[0m\u001b[0;34m\u001b[0m\u001b[0m\n\u001b[1;32m    530\u001b[0m             \u001b[0mmeth\u001b[0m \u001b[0;34m=\u001b[0m \u001b[0mgetattr\u001b[0m\u001b[0;34m(\u001b[0m\u001b[0mprocessor\u001b[0m\u001b[0;34m,\u001b[0m \u001b[0mmeth_name\u001b[0m\u001b[0;34m)\u001b[0m\u001b[0;34m\u001b[0m\u001b[0;34m\u001b[0m\u001b[0m\n\u001b[0;32m--> 531\u001b[0;31m             \u001b[0mresponse\u001b[0m \u001b[0;34m=\u001b[0m \u001b[0mmeth\u001b[0m\u001b[0;34m(\u001b[0m\u001b[0mreq\u001b[0m\u001b[0;34m,\u001b[0m \u001b[0mresponse\u001b[0m\u001b[0;34m)\u001b[0m\u001b[0;34m\u001b[0m\u001b[0;34m\u001b[0m\u001b[0m\n\u001b[0m\u001b[1;32m    532\u001b[0m \u001b[0;34m\u001b[0m\u001b[0m\n\u001b[1;32m    533\u001b[0m         \u001b[0;32mreturn\u001b[0m \u001b[0mresponse\u001b[0m\u001b[0;34m\u001b[0m\u001b[0;34m\u001b[0m\u001b[0m\n",
            "\u001b[0;32m/usr/lib/python3.8/urllib/request.py\u001b[0m in \u001b[0;36mhttp_response\u001b[0;34m(self, request, response)\u001b[0m\n\u001b[1;32m    638\u001b[0m         \u001b[0;31m# request was successfully received, understood, and accepted.\u001b[0m\u001b[0;34m\u001b[0m\u001b[0;34m\u001b[0m\u001b[0;34m\u001b[0m\u001b[0m\n\u001b[1;32m    639\u001b[0m         \u001b[0;32mif\u001b[0m \u001b[0;32mnot\u001b[0m \u001b[0;34m(\u001b[0m\u001b[0;36m200\u001b[0m \u001b[0;34m<=\u001b[0m \u001b[0mcode\u001b[0m \u001b[0;34m<\u001b[0m \u001b[0;36m300\u001b[0m\u001b[0;34m)\u001b[0m\u001b[0;34m:\u001b[0m\u001b[0;34m\u001b[0m\u001b[0;34m\u001b[0m\u001b[0m\n\u001b[0;32m--> 640\u001b[0;31m             response = self.parent.error(\n\u001b[0m\u001b[1;32m    641\u001b[0m                 'http', request, response, code, msg, hdrs)\n\u001b[1;32m    642\u001b[0m \u001b[0;34m\u001b[0m\u001b[0m\n",
            "\u001b[0;32m/usr/lib/python3.8/urllib/request.py\u001b[0m in \u001b[0;36merror\u001b[0;34m(self, proto, *args)\u001b[0m\n\u001b[1;32m    567\u001b[0m         \u001b[0;32mif\u001b[0m \u001b[0mhttp_err\u001b[0m\u001b[0;34m:\u001b[0m\u001b[0;34m\u001b[0m\u001b[0;34m\u001b[0m\u001b[0m\n\u001b[1;32m    568\u001b[0m             \u001b[0margs\u001b[0m \u001b[0;34m=\u001b[0m \u001b[0;34m(\u001b[0m\u001b[0mdict\u001b[0m\u001b[0;34m,\u001b[0m \u001b[0;34m'default'\u001b[0m\u001b[0;34m,\u001b[0m \u001b[0;34m'http_error_default'\u001b[0m\u001b[0;34m)\u001b[0m \u001b[0;34m+\u001b[0m \u001b[0morig_args\u001b[0m\u001b[0;34m\u001b[0m\u001b[0;34m\u001b[0m\u001b[0m\n\u001b[0;32m--> 569\u001b[0;31m             \u001b[0;32mreturn\u001b[0m \u001b[0mself\u001b[0m\u001b[0;34m.\u001b[0m\u001b[0m_call_chain\u001b[0m\u001b[0;34m(\u001b[0m\u001b[0;34m*\u001b[0m\u001b[0margs\u001b[0m\u001b[0;34m)\u001b[0m\u001b[0;34m\u001b[0m\u001b[0;34m\u001b[0m\u001b[0m\n\u001b[0m\u001b[1;32m    570\u001b[0m \u001b[0;34m\u001b[0m\u001b[0m\n\u001b[1;32m    571\u001b[0m \u001b[0;31m# XXX probably also want an abstract factory that knows when it makes\u001b[0m\u001b[0;34m\u001b[0m\u001b[0;34m\u001b[0m\u001b[0;34m\u001b[0m\u001b[0m\n",
            "\u001b[0;32m/usr/lib/python3.8/urllib/request.py\u001b[0m in \u001b[0;36m_call_chain\u001b[0;34m(self, chain, kind, meth_name, *args)\u001b[0m\n\u001b[1;32m    500\u001b[0m         \u001b[0;32mfor\u001b[0m \u001b[0mhandler\u001b[0m \u001b[0;32min\u001b[0m \u001b[0mhandlers\u001b[0m\u001b[0;34m:\u001b[0m\u001b[0;34m\u001b[0m\u001b[0;34m\u001b[0m\u001b[0m\n\u001b[1;32m    501\u001b[0m             \u001b[0mfunc\u001b[0m \u001b[0;34m=\u001b[0m \u001b[0mgetattr\u001b[0m\u001b[0;34m(\u001b[0m\u001b[0mhandler\u001b[0m\u001b[0;34m,\u001b[0m \u001b[0mmeth_name\u001b[0m\u001b[0;34m)\u001b[0m\u001b[0;34m\u001b[0m\u001b[0;34m\u001b[0m\u001b[0m\n\u001b[0;32m--> 502\u001b[0;31m             \u001b[0mresult\u001b[0m \u001b[0;34m=\u001b[0m \u001b[0mfunc\u001b[0m\u001b[0;34m(\u001b[0m\u001b[0;34m*\u001b[0m\u001b[0margs\u001b[0m\u001b[0;34m)\u001b[0m\u001b[0;34m\u001b[0m\u001b[0;34m\u001b[0m\u001b[0m\n\u001b[0m\u001b[1;32m    503\u001b[0m             \u001b[0;32mif\u001b[0m \u001b[0mresult\u001b[0m \u001b[0;32mis\u001b[0m \u001b[0;32mnot\u001b[0m \u001b[0;32mNone\u001b[0m\u001b[0;34m:\u001b[0m\u001b[0;34m\u001b[0m\u001b[0;34m\u001b[0m\u001b[0m\n\u001b[1;32m    504\u001b[0m                 \u001b[0;32mreturn\u001b[0m \u001b[0mresult\u001b[0m\u001b[0;34m\u001b[0m\u001b[0;34m\u001b[0m\u001b[0m\n",
            "\u001b[0;32m/usr/lib/python3.8/urllib/request.py\u001b[0m in \u001b[0;36mhttp_error_default\u001b[0;34m(self, req, fp, code, msg, hdrs)\u001b[0m\n\u001b[1;32m    647\u001b[0m \u001b[0;32mclass\u001b[0m \u001b[0mHTTPDefaultErrorHandler\u001b[0m\u001b[0;34m(\u001b[0m\u001b[0mBaseHandler\u001b[0m\u001b[0;34m)\u001b[0m\u001b[0;34m:\u001b[0m\u001b[0;34m\u001b[0m\u001b[0;34m\u001b[0m\u001b[0m\n\u001b[1;32m    648\u001b[0m     \u001b[0;32mdef\u001b[0m \u001b[0mhttp_error_default\u001b[0m\u001b[0;34m(\u001b[0m\u001b[0mself\u001b[0m\u001b[0;34m,\u001b[0m \u001b[0mreq\u001b[0m\u001b[0;34m,\u001b[0m \u001b[0mfp\u001b[0m\u001b[0;34m,\u001b[0m \u001b[0mcode\u001b[0m\u001b[0;34m,\u001b[0m \u001b[0mmsg\u001b[0m\u001b[0;34m,\u001b[0m \u001b[0mhdrs\u001b[0m\u001b[0;34m)\u001b[0m\u001b[0;34m:\u001b[0m\u001b[0;34m\u001b[0m\u001b[0;34m\u001b[0m\u001b[0m\n\u001b[0;32m--> 649\u001b[0;31m         \u001b[0;32mraise\u001b[0m \u001b[0mHTTPError\u001b[0m\u001b[0;34m(\u001b[0m\u001b[0mreq\u001b[0m\u001b[0;34m.\u001b[0m\u001b[0mfull_url\u001b[0m\u001b[0;34m,\u001b[0m \u001b[0mcode\u001b[0m\u001b[0;34m,\u001b[0m \u001b[0mmsg\u001b[0m\u001b[0;34m,\u001b[0m \u001b[0mhdrs\u001b[0m\u001b[0;34m,\u001b[0m \u001b[0mfp\u001b[0m\u001b[0;34m)\u001b[0m\u001b[0;34m\u001b[0m\u001b[0;34m\u001b[0m\u001b[0m\n\u001b[0m\u001b[1;32m    650\u001b[0m \u001b[0;34m\u001b[0m\u001b[0m\n\u001b[1;32m    651\u001b[0m \u001b[0;32mclass\u001b[0m \u001b[0mHTTPRedirectHandler\u001b[0m\u001b[0;34m(\u001b[0m\u001b[0mBaseHandler\u001b[0m\u001b[0;34m)\u001b[0m\u001b[0;34m:\u001b[0m\u001b[0;34m\u001b[0m\u001b[0;34m\u001b[0m\u001b[0m\n",
            "\u001b[0;31mHTTPError\u001b[0m: HTTP Error 403: Forbidden"
          ]
        }
      ]
    },
    {
      "cell_type": "code",
      "source": [
        "import urllib.request\n",
        "\n",
        "audio_url = \"https://quicksounds.com/uploads/tracks/1892559109_1071564307_345858309.mp3\"\n",
        "urllib.request.urlretrieve(audio_url, \"input3.wav\")"
      ],
      "metadata": {
        "colab": {
          "base_uri": "https://localhost:8080/",
          "height": 345
        },
        "id": "sHtMmLuxLb4K",
        "outputId": "f44cf4c8-7c0b-41da-c68a-49e9d2e4948b"
      },
      "execution_count": null,
      "outputs": [
        {
          "output_type": "error",
          "ename": "HTTPError",
          "evalue": "ignored",
          "traceback": [
            "\u001b[0;31m---------------------------------------------------------------------------\u001b[0m",
            "\u001b[0;31mHTTPError\u001b[0m                                 Traceback (most recent call last)",
            "\u001b[0;32m<ipython-input-9-4c087cac1eeb>\u001b[0m in \u001b[0;36m<module>\u001b[0;34m\u001b[0m\n\u001b[1;32m      2\u001b[0m \u001b[0;34m\u001b[0m\u001b[0m\n\u001b[1;32m      3\u001b[0m \u001b[0maudio_url\u001b[0m \u001b[0;34m=\u001b[0m \u001b[0;34m\"https://quicksounds.com/uploads/tracks/1892559109_1071564307_345858309.mp3\"\u001b[0m\u001b[0;34m\u001b[0m\u001b[0;34m\u001b[0m\u001b[0m\n\u001b[0;32m----> 4\u001b[0;31m \u001b[0murllib\u001b[0m\u001b[0;34m.\u001b[0m\u001b[0mrequest\u001b[0m\u001b[0;34m.\u001b[0m\u001b[0murlretrieve\u001b[0m\u001b[0;34m(\u001b[0m\u001b[0maudio_url\u001b[0m\u001b[0;34m,\u001b[0m \u001b[0;34m\"input3.wav\"\u001b[0m\u001b[0;34m)\u001b[0m\u001b[0;34m\u001b[0m\u001b[0;34m\u001b[0m\u001b[0m\n\u001b[0m",
            "\u001b[0;32m/usr/lib/python3.8/urllib/request.py\u001b[0m in \u001b[0;36murlretrieve\u001b[0;34m(url, filename, reporthook, data)\u001b[0m\n\u001b[1;32m    245\u001b[0m     \u001b[0murl_type\u001b[0m\u001b[0;34m,\u001b[0m \u001b[0mpath\u001b[0m \u001b[0;34m=\u001b[0m \u001b[0m_splittype\u001b[0m\u001b[0;34m(\u001b[0m\u001b[0murl\u001b[0m\u001b[0;34m)\u001b[0m\u001b[0;34m\u001b[0m\u001b[0;34m\u001b[0m\u001b[0m\n\u001b[1;32m    246\u001b[0m \u001b[0;34m\u001b[0m\u001b[0m\n\u001b[0;32m--> 247\u001b[0;31m     \u001b[0;32mwith\u001b[0m \u001b[0mcontextlib\u001b[0m\u001b[0;34m.\u001b[0m\u001b[0mclosing\u001b[0m\u001b[0;34m(\u001b[0m\u001b[0murlopen\u001b[0m\u001b[0;34m(\u001b[0m\u001b[0murl\u001b[0m\u001b[0;34m,\u001b[0m \u001b[0mdata\u001b[0m\u001b[0;34m)\u001b[0m\u001b[0;34m)\u001b[0m \u001b[0;32mas\u001b[0m \u001b[0mfp\u001b[0m\u001b[0;34m:\u001b[0m\u001b[0;34m\u001b[0m\u001b[0;34m\u001b[0m\u001b[0m\n\u001b[0m\u001b[1;32m    248\u001b[0m         \u001b[0mheaders\u001b[0m \u001b[0;34m=\u001b[0m \u001b[0mfp\u001b[0m\u001b[0;34m.\u001b[0m\u001b[0minfo\u001b[0m\u001b[0;34m(\u001b[0m\u001b[0;34m)\u001b[0m\u001b[0;34m\u001b[0m\u001b[0;34m\u001b[0m\u001b[0m\n\u001b[1;32m    249\u001b[0m \u001b[0;34m\u001b[0m\u001b[0m\n",
            "\u001b[0;32m/usr/lib/python3.8/urllib/request.py\u001b[0m in \u001b[0;36murlopen\u001b[0;34m(url, data, timeout, cafile, capath, cadefault, context)\u001b[0m\n\u001b[1;32m    220\u001b[0m     \u001b[0;32melse\u001b[0m\u001b[0;34m:\u001b[0m\u001b[0;34m\u001b[0m\u001b[0;34m\u001b[0m\u001b[0m\n\u001b[1;32m    221\u001b[0m         \u001b[0mopener\u001b[0m \u001b[0;34m=\u001b[0m \u001b[0m_opener\u001b[0m\u001b[0;34m\u001b[0m\u001b[0;34m\u001b[0m\u001b[0m\n\u001b[0;32m--> 222\u001b[0;31m     \u001b[0;32mreturn\u001b[0m \u001b[0mopener\u001b[0m\u001b[0;34m.\u001b[0m\u001b[0mopen\u001b[0m\u001b[0;34m(\u001b[0m\u001b[0murl\u001b[0m\u001b[0;34m,\u001b[0m \u001b[0mdata\u001b[0m\u001b[0;34m,\u001b[0m \u001b[0mtimeout\u001b[0m\u001b[0;34m)\u001b[0m\u001b[0;34m\u001b[0m\u001b[0;34m\u001b[0m\u001b[0m\n\u001b[0m\u001b[1;32m    223\u001b[0m \u001b[0;34m\u001b[0m\u001b[0m\n\u001b[1;32m    224\u001b[0m \u001b[0;32mdef\u001b[0m \u001b[0minstall_opener\u001b[0m\u001b[0;34m(\u001b[0m\u001b[0mopener\u001b[0m\u001b[0;34m)\u001b[0m\u001b[0;34m:\u001b[0m\u001b[0;34m\u001b[0m\u001b[0;34m\u001b[0m\u001b[0m\n",
            "\u001b[0;32m/usr/lib/python3.8/urllib/request.py\u001b[0m in \u001b[0;36mopen\u001b[0;34m(self, fullurl, data, timeout)\u001b[0m\n\u001b[1;32m    529\u001b[0m         \u001b[0;32mfor\u001b[0m \u001b[0mprocessor\u001b[0m \u001b[0;32min\u001b[0m \u001b[0mself\u001b[0m\u001b[0;34m.\u001b[0m\u001b[0mprocess_response\u001b[0m\u001b[0;34m.\u001b[0m\u001b[0mget\u001b[0m\u001b[0;34m(\u001b[0m\u001b[0mprotocol\u001b[0m\u001b[0;34m,\u001b[0m \u001b[0;34m[\u001b[0m\u001b[0;34m]\u001b[0m\u001b[0;34m)\u001b[0m\u001b[0;34m:\u001b[0m\u001b[0;34m\u001b[0m\u001b[0;34m\u001b[0m\u001b[0m\n\u001b[1;32m    530\u001b[0m             \u001b[0mmeth\u001b[0m \u001b[0;34m=\u001b[0m \u001b[0mgetattr\u001b[0m\u001b[0;34m(\u001b[0m\u001b[0mprocessor\u001b[0m\u001b[0;34m,\u001b[0m \u001b[0mmeth_name\u001b[0m\u001b[0;34m)\u001b[0m\u001b[0;34m\u001b[0m\u001b[0;34m\u001b[0m\u001b[0m\n\u001b[0;32m--> 531\u001b[0;31m             \u001b[0mresponse\u001b[0m \u001b[0;34m=\u001b[0m \u001b[0mmeth\u001b[0m\u001b[0;34m(\u001b[0m\u001b[0mreq\u001b[0m\u001b[0;34m,\u001b[0m \u001b[0mresponse\u001b[0m\u001b[0;34m)\u001b[0m\u001b[0;34m\u001b[0m\u001b[0;34m\u001b[0m\u001b[0m\n\u001b[0m\u001b[1;32m    532\u001b[0m \u001b[0;34m\u001b[0m\u001b[0m\n\u001b[1;32m    533\u001b[0m         \u001b[0;32mreturn\u001b[0m \u001b[0mresponse\u001b[0m\u001b[0;34m\u001b[0m\u001b[0;34m\u001b[0m\u001b[0m\n",
            "\u001b[0;32m/usr/lib/python3.8/urllib/request.py\u001b[0m in \u001b[0;36mhttp_response\u001b[0;34m(self, request, response)\u001b[0m\n\u001b[1;32m    638\u001b[0m         \u001b[0;31m# request was successfully received, understood, and accepted.\u001b[0m\u001b[0;34m\u001b[0m\u001b[0;34m\u001b[0m\u001b[0;34m\u001b[0m\u001b[0m\n\u001b[1;32m    639\u001b[0m         \u001b[0;32mif\u001b[0m \u001b[0;32mnot\u001b[0m \u001b[0;34m(\u001b[0m\u001b[0;36m200\u001b[0m \u001b[0;34m<=\u001b[0m \u001b[0mcode\u001b[0m \u001b[0;34m<\u001b[0m \u001b[0;36m300\u001b[0m\u001b[0;34m)\u001b[0m\u001b[0;34m:\u001b[0m\u001b[0;34m\u001b[0m\u001b[0;34m\u001b[0m\u001b[0m\n\u001b[0;32m--> 640\u001b[0;31m             response = self.parent.error(\n\u001b[0m\u001b[1;32m    641\u001b[0m                 'http', request, response, code, msg, hdrs)\n\u001b[1;32m    642\u001b[0m \u001b[0;34m\u001b[0m\u001b[0m\n",
            "\u001b[0;32m/usr/lib/python3.8/urllib/request.py\u001b[0m in \u001b[0;36merror\u001b[0;34m(self, proto, *args)\u001b[0m\n\u001b[1;32m    567\u001b[0m         \u001b[0;32mif\u001b[0m \u001b[0mhttp_err\u001b[0m\u001b[0;34m:\u001b[0m\u001b[0;34m\u001b[0m\u001b[0;34m\u001b[0m\u001b[0m\n\u001b[1;32m    568\u001b[0m             \u001b[0margs\u001b[0m \u001b[0;34m=\u001b[0m \u001b[0;34m(\u001b[0m\u001b[0mdict\u001b[0m\u001b[0;34m,\u001b[0m \u001b[0;34m'default'\u001b[0m\u001b[0;34m,\u001b[0m \u001b[0;34m'http_error_default'\u001b[0m\u001b[0;34m)\u001b[0m \u001b[0;34m+\u001b[0m \u001b[0morig_args\u001b[0m\u001b[0;34m\u001b[0m\u001b[0;34m\u001b[0m\u001b[0m\n\u001b[0;32m--> 569\u001b[0;31m             \u001b[0;32mreturn\u001b[0m \u001b[0mself\u001b[0m\u001b[0;34m.\u001b[0m\u001b[0m_call_chain\u001b[0m\u001b[0;34m(\u001b[0m\u001b[0;34m*\u001b[0m\u001b[0margs\u001b[0m\u001b[0;34m)\u001b[0m\u001b[0;34m\u001b[0m\u001b[0;34m\u001b[0m\u001b[0m\n\u001b[0m\u001b[1;32m    570\u001b[0m \u001b[0;34m\u001b[0m\u001b[0m\n\u001b[1;32m    571\u001b[0m \u001b[0;31m# XXX probably also want an abstract factory that knows when it makes\u001b[0m\u001b[0;34m\u001b[0m\u001b[0;34m\u001b[0m\u001b[0;34m\u001b[0m\u001b[0m\n",
            "\u001b[0;32m/usr/lib/python3.8/urllib/request.py\u001b[0m in \u001b[0;36m_call_chain\u001b[0;34m(self, chain, kind, meth_name, *args)\u001b[0m\n\u001b[1;32m    500\u001b[0m         \u001b[0;32mfor\u001b[0m \u001b[0mhandler\u001b[0m \u001b[0;32min\u001b[0m \u001b[0mhandlers\u001b[0m\u001b[0;34m:\u001b[0m\u001b[0;34m\u001b[0m\u001b[0;34m\u001b[0m\u001b[0m\n\u001b[1;32m    501\u001b[0m             \u001b[0mfunc\u001b[0m \u001b[0;34m=\u001b[0m \u001b[0mgetattr\u001b[0m\u001b[0;34m(\u001b[0m\u001b[0mhandler\u001b[0m\u001b[0;34m,\u001b[0m \u001b[0mmeth_name\u001b[0m\u001b[0;34m)\u001b[0m\u001b[0;34m\u001b[0m\u001b[0;34m\u001b[0m\u001b[0m\n\u001b[0;32m--> 502\u001b[0;31m             \u001b[0mresult\u001b[0m \u001b[0;34m=\u001b[0m \u001b[0mfunc\u001b[0m\u001b[0;34m(\u001b[0m\u001b[0;34m*\u001b[0m\u001b[0margs\u001b[0m\u001b[0;34m)\u001b[0m\u001b[0;34m\u001b[0m\u001b[0;34m\u001b[0m\u001b[0m\n\u001b[0m\u001b[1;32m    503\u001b[0m             \u001b[0;32mif\u001b[0m \u001b[0mresult\u001b[0m \u001b[0;32mis\u001b[0m \u001b[0;32mnot\u001b[0m \u001b[0;32mNone\u001b[0m\u001b[0;34m:\u001b[0m\u001b[0;34m\u001b[0m\u001b[0;34m\u001b[0m\u001b[0m\n\u001b[1;32m    504\u001b[0m                 \u001b[0;32mreturn\u001b[0m \u001b[0mresult\u001b[0m\u001b[0;34m\u001b[0m\u001b[0;34m\u001b[0m\u001b[0m\n",
            "\u001b[0;32m/usr/lib/python3.8/urllib/request.py\u001b[0m in \u001b[0;36mhttp_error_default\u001b[0;34m(self, req, fp, code, msg, hdrs)\u001b[0m\n\u001b[1;32m    647\u001b[0m \u001b[0;32mclass\u001b[0m \u001b[0mHTTPDefaultErrorHandler\u001b[0m\u001b[0;34m(\u001b[0m\u001b[0mBaseHandler\u001b[0m\u001b[0;34m)\u001b[0m\u001b[0;34m:\u001b[0m\u001b[0;34m\u001b[0m\u001b[0;34m\u001b[0m\u001b[0m\n\u001b[1;32m    648\u001b[0m     \u001b[0;32mdef\u001b[0m \u001b[0mhttp_error_default\u001b[0m\u001b[0;34m(\u001b[0m\u001b[0mself\u001b[0m\u001b[0;34m,\u001b[0m \u001b[0mreq\u001b[0m\u001b[0;34m,\u001b[0m \u001b[0mfp\u001b[0m\u001b[0;34m,\u001b[0m \u001b[0mcode\u001b[0m\u001b[0;34m,\u001b[0m \u001b[0mmsg\u001b[0m\u001b[0;34m,\u001b[0m \u001b[0mhdrs\u001b[0m\u001b[0;34m)\u001b[0m\u001b[0;34m:\u001b[0m\u001b[0;34m\u001b[0m\u001b[0;34m\u001b[0m\u001b[0m\n\u001b[0;32m--> 649\u001b[0;31m         \u001b[0;32mraise\u001b[0m \u001b[0mHTTPError\u001b[0m\u001b[0;34m(\u001b[0m\u001b[0mreq\u001b[0m\u001b[0;34m.\u001b[0m\u001b[0mfull_url\u001b[0m\u001b[0;34m,\u001b[0m \u001b[0mcode\u001b[0m\u001b[0;34m,\u001b[0m \u001b[0mmsg\u001b[0m\u001b[0;34m,\u001b[0m \u001b[0mhdrs\u001b[0m\u001b[0;34m,\u001b[0m \u001b[0mfp\u001b[0m\u001b[0;34m)\u001b[0m\u001b[0;34m\u001b[0m\u001b[0;34m\u001b[0m\u001b[0m\n\u001b[0m\u001b[1;32m    650\u001b[0m \u001b[0;34m\u001b[0m\u001b[0m\n\u001b[1;32m    651\u001b[0m \u001b[0;32mclass\u001b[0m \u001b[0mHTTPRedirectHandler\u001b[0m\u001b[0;34m(\u001b[0m\u001b[0mBaseHandler\u001b[0m\u001b[0;34m)\u001b[0m\u001b[0;34m:\u001b[0m\u001b[0;34m\u001b[0m\u001b[0;34m\u001b[0m\u001b[0m\n",
            "\u001b[0;31mHTTPError\u001b[0m: HTTP Error 403: Forbidden"
          ]
        }
      ]
    },
    {
      "cell_type": "markdown",
      "metadata": {
        "id": "NjHe366Rvmij"
      },
      "source": [
        "There are many websites that offer free stock videos in MP4 format, including:\n",
        "\n",
        "- Pexels Video: https://www.pexels.com/videos/\n",
        "- Videvo: https://www.videvo.net/\n",
        "- Coverr: https://coverr.co/\n",
        "- Life of Vids: https://www.lifeofvids.com/\n",
        "- SplitShire: https://www.splitshire.com/\n",
        "- Free Stock Footage Archive: https://freestockfootagearchive.com/\n",
        "- Distill Video: https://www.distillvideo.com/\n",
        "- Stock Footage for Free: https://www.stockfootageforfree.com/\n",
        "- Footage Crate: https://www.footagecrate.com/\n",
        "- Please note that these websites may have different terms of use and licensing agreements, so be sure to read and understand them before using any of the videos.\n",
        "It's always advisable to read the terms and conditions and the license of the videos before using them. Some of them may have limitations in terms of commercial usage, some may need attribution and others may be completely free to use."
      ]
    },
    {
      "cell_type": "markdown",
      "metadata": {
        "id": "6mHpO5y1wEm6"
      },
      "source": [
        "There are many websites that offer free stock sounds, including:\n",
        "\n",
        "- Freesound: https://freesound.org/\n",
        "- AudioJungle: https://audiojungle.net/\n",
        "- SoundBible: http://soundbible.com/\n",
        "- Free Sound: https://www.freesound.org/\n",
        "- Incompetech: http://incompetech.com/music/royalty-free/\n",
        "- Bensound: http://www.bensound.com/\n",
        "- AudioBlocks: https://www.audioblocks.com/\n",
        "- YouTube Audio Library: https://www.youtube.com/audiolibrary/music\n",
        "- SoundSnap: https://www.soundsnap.com/\n",
        "* Please note that these websites may have different terms of use and licensing agreements, so be sure to read and understand them before using any of the sounds. Some of them may have limitations in terms of commercial usage, some may need attribution and others may be completely free to use.\n",
        "It's always advisable to read the terms and conditions and the license of the sounds before using them."
      ]
    },
    {
      "cell_type": "markdown",
      "metadata": {
        "id": "NnRV5-m7yZLM"
      },
      "source": [
        "# Looping Through A video :"
      ]
    },
    {
      "cell_type": "markdown",
      "metadata": {
        "id": "VCcubZec_0IL"
      },
      "source": [
        "pydub: pydub is a Python library for manipulating audio files, you can use it to open an audio file and then repeat it for a certain number of times and then save it to a new file. Here's an example:\n"
      ]
    },
    {
      "cell_type": "code",
      "source": [
        "!pip install scipy"
      ],
      "metadata": {
        "colab": {
          "base_uri": "https://localhost:8080/"
        },
        "id": "aK_oboe_Xm8r",
        "outputId": "a4a405ae-3e43-495e-d8f6-a13f013da494"
      },
      "execution_count": null,
      "outputs": [
        {
          "output_type": "stream",
          "name": "stdout",
          "text": [
            "Looking in indexes: https://pypi.org/simple, https://us-python.pkg.dev/colab-wheels/public/simple/\n",
            "Requirement already satisfied: scipy in /usr/local/lib/python3.8/dist-packages (1.7.3)\n",
            "Requirement already satisfied: numpy<1.23.0,>=1.16.5 in /usr/local/lib/python3.8/dist-packages (from scipy) (1.21.6)\n"
          ]
        }
      ]
    },
    {
      "cell_type": "code",
      "source": [
        "from pydub import AudioSegment\n",
        "\n",
        "# read the wav files\n",
        "file1 = AudioSegment.from_file(\"input1.wav\", format=\"wav\")\n",
        "file2 = AudioSegment.from_file(\"input2.mp3\", format=\"mp3\")\n",
        "file3 = AudioSegment.from_file(\"input3.mp3\", format=\"mp3\")\n",
        "\n",
        "# set the desired timestamps, in milliseconds, at which the files will be combined\n",
        "timestamp1 = 10000 # in milliseconds\n",
        "timestamp2 = 40000 # in milliseconds\n",
        "\n",
        "# concatenate the files\n",
        "result = file1.overlay(file2, position=timestamp1).overlay(file3, position=timestamp2)\n",
        "\n",
        "# export the combined audio\n",
        "result.export(\"combined.wav\", format=\"wav\")"
      ],
      "metadata": {
        "colab": {
          "base_uri": "https://localhost:8080/"
        },
        "id": "_vtCBq9VVbMb",
        "outputId": "979ea322-fbc6-4e75-b67f-4a1dda16388b"
      },
      "execution_count": null,
      "outputs": [
        {
          "output_type": "execute_result",
          "data": {
            "text/plain": [
              "<_io.BufferedRandom name='combined.wav'>"
            ]
          },
          "metadata": {},
          "execution_count": 14
        }
      ]
    },
    {
      "cell_type": "code",
      "execution_count": null,
      "metadata": {
        "colab": {
          "base_uri": "https://localhost:8080/"
        },
        "id": "5EK-rdos7LAN",
        "outputId": "5e4e49b5-4128-4082-8f32-6ea16b8d9bb2"
      },
      "outputs": [
        {
          "output_type": "execute_result",
          "data": {
            "text/plain": [
              "<_io.BufferedRandom name='output.mp3'>"
            ]
          },
          "metadata": {},
          "execution_count": 15
        }
      ],
      "source": [
        "audio = AudioSegment.from_file(\"combined.wav\", format=\"wav\")\n",
        "\n",
        "one_hour = 60 * 60 * 1000 # 1 hour in milliseconds\n",
        "\n",
        "repeated_audio = audio\n",
        "while len(repeated_audio) < one_hour:\n",
        "    repeated_audio += audio\n",
        "\n",
        "repeated_audio = repeated_audio[:one_hour]\n",
        "repeated_audio.export(\"output.mp3\", format=\"mp3\")"
      ]
    },
    {
      "cell_type": "markdown",
      "metadata": {
        "id": "7PEIsvpz__gG"
      },
      "source": [
        "we'll use FFMPEG to loop the video for 1 hour"
      ]
    },
    {
      "cell_type": "code",
      "execution_count": null,
      "metadata": {
        "colab": {
          "base_uri": "https://localhost:8080/"
        },
        "id": "OABuMPVXke1K",
        "outputId": "5a8e587e-809d-46e1-e784-6598196769b0"
      },
      "outputs": [
        {
          "output_type": "stream",
          "name": "stdout",
          "text": [
            "ffmpeg version 4.2.7-0ubuntu0.1 Copyright (c) 2000-2022 the FFmpeg developers\n",
            "  built with gcc 9 (Ubuntu 9.4.0-1ubuntu1~20.04.1)\n",
            "  configuration: --prefix=/usr --extra-version=0ubuntu0.1 --toolchain=hardened --libdir=/usr/lib/x86_64-linux-gnu --incdir=/usr/include/x86_64-linux-gnu --arch=amd64 --enable-gpl --disable-stripping --enable-avresample --disable-filter=resample --enable-avisynth --enable-gnutls --enable-ladspa --enable-libaom --enable-libass --enable-libbluray --enable-libbs2b --enable-libcaca --enable-libcdio --enable-libcodec2 --enable-libflite --enable-libfontconfig --enable-libfreetype --enable-libfribidi --enable-libgme --enable-libgsm --enable-libjack --enable-libmp3lame --enable-libmysofa --enable-libopenjpeg --enable-libopenmpt --enable-libopus --enable-libpulse --enable-librsvg --enable-librubberband --enable-libshine --enable-libsnappy --enable-libsoxr --enable-libspeex --enable-libssh --enable-libtheora --enable-libtwolame --enable-libvidstab --enable-libvorbis --enable-libvpx --enable-libwavpack --enable-libwebp --enable-libx265 --enable-libxml2 --enable-libxvid --enable-libzmq --enable-libzvbi --enable-lv2 --enable-omx --enable-openal --enable-opencl --enable-opengl --enable-sdl2 --enable-libdc1394 --enable-libdrm --enable-libiec61883 --enable-nvenc --enable-chromaprint --enable-frei0r --enable-libx264 --enable-shared\n",
            "  libavutil      56. 31.100 / 56. 31.100\n",
            "  libavcodec     58. 54.100 / 58. 54.100\n",
            "  libavformat    58. 29.100 / 58. 29.100\n",
            "  libavdevice    58.  8.100 / 58.  8.100\n",
            "  libavfilter     7. 57.100 /  7. 57.100\n",
            "  libavresample   4.  0.  0 /  4.  0.  0\n",
            "  libswscale      5.  5.100 /  5.  5.100\n",
            "  libswresample   3.  5.100 /  3.  5.100\n",
            "  libpostproc    55.  5.100 / 55.  5.100\n",
            "Input #0, mov,mp4,m4a,3gp,3g2,mj2, from 'video.mp4':\n",
            "  Metadata:\n",
            "    major_brand     : mp42\n",
            "    minor_version   : 0\n",
            "    compatible_brands: mp42mp41isomavc1\n",
            "    creation_time   : 2021-10-11T12:34:18.000000Z\n",
            "  Duration: 00:00:10.48, start: 0.000000, bitrate: 17602 kb/s\n",
            "    Stream #0:0(und): Video: h264 (High) (avc1 / 0x31637661), yuv420p(tv, bt709), 4096x2160, 17599 kb/s, 25 fps, 25 tbr, 25 tbn, 50 tbc (default)\n",
            "    Metadata:\n",
            "      creation_time   : 2021-10-11T12:34:18.000000Z\n",
            "      handler_name    : L-SMASH Video Handler\n",
            "      encoder         : AVC Coding\n",
            "Output #0, mp4, to 'output.mp4':\n",
            "  Metadata:\n",
            "    major_brand     : mp42\n",
            "    minor_version   : 0\n",
            "    compatible_brands: mp42mp41isomavc1\n",
            "    encoder         : Lavf58.29.100\n",
            "    Stream #0:0(und): Video: h264 (High) (avc1 / 0x31637661), yuv420p(tv, bt709), 4096x2160, q=2-31, 17599 kb/s, 25 fps, 25 tbr, 12800 tbn, 25 tbc (default)\n",
            "    Metadata:\n",
            "      creation_time   : 2021-10-11T12:34:18.000000Z\n",
            "      handler_name    : L-SMASH Video Handler\n",
            "      encoder         : AVC Coding\n",
            "Stream mapping:\n",
            "  Stream #0:0 -> #0:0 (copy)\n",
            "Press [q] to stop, [?] for help\n",
            "frame=90002 fps=2867 q=-1.0 Lsize= 7735312kB time=00:59:59.96 bitrate=17602.3kbits/s speed= 115x    \n",
            "video:7734145kB audio:0kB subtitle:0kB other streams:0kB global headers:0kB muxing overhead: 0.015088%\n"
          ]
        }
      ],
      "source": [
        "!ffmpeg -stream_loop -1 -i video.mp4 -c copy -t 3600 -y output.mp4"
      ]
    },
    {
      "cell_type": "code",
      "execution_count": null,
      "metadata": {
        "colab": {
          "base_uri": "https://localhost:8080/"
        },
        "id": "1WKzg0TtwuZe",
        "outputId": "d74291f5-1845-4421-885f-ba1d2c8aa9b6"
      },
      "outputs": [
        {
          "name": "stdout",
          "output_type": "stream",
          "text": [
            "ffmpeg version 4.2.7-0ubuntu0.1 Copyright (c) 2000-2022 the FFmpeg developers\n",
            "  built with gcc 9 (Ubuntu 9.4.0-1ubuntu1~20.04.1)\n",
            "  configuration: --prefix=/usr --extra-version=0ubuntu0.1 --toolchain=hardened --libdir=/usr/lib/x86_64-linux-gnu --incdir=/usr/include/x86_64-linux-gnu --arch=amd64 --enable-gpl --disable-stripping --enable-avresample --disable-filter=resample --enable-avisynth --enable-gnutls --enable-ladspa --enable-libaom --enable-libass --enable-libbluray --enable-libbs2b --enable-libcaca --enable-libcdio --enable-libcodec2 --enable-libflite --enable-libfontconfig --enable-libfreetype --enable-libfribidi --enable-libgme --enable-libgsm --enable-libjack --enable-libmp3lame --enable-libmysofa --enable-libopenjpeg --enable-libopenmpt --enable-libopus --enable-libpulse --enable-librsvg --enable-librubberband --enable-libshine --enable-libsnappy --enable-libsoxr --enable-libspeex --enable-libssh --enable-libtheora --enable-libtwolame --enable-libvidstab --enable-libvorbis --enable-libvpx --enable-libwavpack --enable-libwebp --enable-libx265 --enable-libxml2 --enable-libxvid --enable-libzmq --enable-libzvbi --enable-lv2 --enable-omx --enable-openal --enable-opencl --enable-opengl --enable-sdl2 --enable-libdc1394 --enable-libdrm --enable-libiec61883 --enable-nvenc --enable-chromaprint --enable-frei0r --enable-libx264 --enable-shared\n",
            "  libavutil      56. 31.100 / 56. 31.100\n",
            "  libavcodec     58. 54.100 / 58. 54.100\n",
            "  libavformat    58. 29.100 / 58. 29.100\n",
            "  libavdevice    58.  8.100 / 58.  8.100\n",
            "  libavfilter     7. 57.100 /  7. 57.100\n",
            "  libavresample   4.  0.  0 /  4.  0.  0\n",
            "  libswscale      5.  5.100 /  5.  5.100\n",
            "  libswresample   3.  5.100 /  3.  5.100\n",
            "  libpostproc    55.  5.100 / 55.  5.100\n",
            "Input #0, mov,mp4,m4a,3gp,3g2,mj2, from 'video.mp4':\n",
            "  Metadata:\n",
            "    major_brand     : mp42\n",
            "    minor_version   : 0\n",
            "    compatible_brands: mp42mp41isomavc1\n",
            "    creation_time   : 2019-01-29T13:02:23.000000Z\n",
            "  Duration: 00:01:00.14, start: 0.000000, bitrate: 2835 kb/s\n",
            "    Stream #0:0(und): Video: h264 (High) (avc1 / 0x31637661), yuv420p(tv, bt709), 1920x1080, 2694 kb/s, 30 fps, 30 tbr, 30 tbn, 60 tbc (default)\n",
            "    Metadata:\n",
            "      creation_time   : 2019-01-29T13:02:23.000000Z\n",
            "      handler_name    : L-SMASH Video Handler\n",
            "      encoder         : AVC Coding\n",
            "    Stream #0:1(und): Audio: aac (LC) (mp4a / 0x6134706D), 48000 Hz, stereo, fltp, 137 kb/s (default)\n",
            "    Metadata:\n",
            "      creation_time   : 2019-01-29T13:02:23.000000Z\n",
            "      handler_name    : L-SMASH Audio Handler\n",
            "Stream mapping:\n",
            "  Stream #0:0 (h264_cuvid) -> loop\n",
            "  Stream #0:1 (aac) -> atrim\n",
            "  setpts -> Stream #0:0 (h264_nvenc)\n",
            "  asetpts -> Stream #0:1 (aac)\n",
            "Press [q] to stop, [?] for help\n",
            "Output #0, mp4, to 'output.mp4':\n",
            "  Metadata:\n",
            "    major_brand     : mp42\n",
            "    minor_version   : 0\n",
            "    compatible_brands: mp42mp41isomavc1\n",
            "    encoder         : Lavf58.29.100\n",
            "    Stream #0:0: Video: h264 (h264_nvenc) (Main) (avc1 / 0x31637661), cuda(progressive), 1920x1080 [SAR 1:1 DAR 16:9], q=-1--1, 2000 kb/s, 30 fps, 15360 tbn, 30 tbc (default)\n",
            "    Metadata:\n",
            "      encoder         : Lavc58.54.100 h264_nvenc\n",
            "    Side data:\n",
            "      cpb: bitrate max/min/avg: 0/0/2000000 buffer size: 4000000 vbv_delay: -1\n",
            "    Stream #0:1: Audio: aac (LC) (mp4a / 0x6134706D), 48000 Hz, stereo, fltp, 128 kb/s (default)\n",
            "    Metadata:\n",
            "      encoder         : Lavc58.54.100 aac\n",
            "frame=108000 fps=409 q=20.0 Lsize=  575268kB time=00:59:59.96 bitrate=1309.1kbits/s speed=13.6x    \n",
            "video:574785kB audio:47kB subtitle:0kB other streams:0kB global headers:0kB muxing overhead: 0.075826%\n",
            "\u001b[1;36m[aac @ 0x55f36c143a80] \u001b[0mQavg: 3383.979\n"
          ]
        }
      ],
      "source": [
        "!ffmpeg -hwaccel cuvid -c:v h264_cuvid -i video.mp4 -filter_complex \"[0:v]loop=loop=-1:size=3600,setpts=N/FRAME_RATE/TB[v];[0:a]atrim=0:3,asetpts=N/SR/TB[a]\" -map \"[v]\" -map \"[a]\" -c:v h264_nvenc -c:a aac -t 3600 output.mp4\n"
      ]
    },
    {
      "cell_type": "markdown",
      "metadata": {
        "id": "QU8BgD68yuB2"
      },
      "source": [
        "In this code, you need to replace 'video.mp4' with the actual name of the video you want to loop and create a 1 hour version of it.\n",
        "The output video will be saved as \"looped_video.mp4\" in the current working directory.\n",
        "This code reads the input video, detects its frame rate, size and duration, then creates a new VideoWriter object with the same parameters, and saves the frames to the output file, this process is repeated until 1 hour of video is recorded.\n",
        "\n",
        "Please keep in mind that the performance of this code will depend on the machine you are running it on, and the size and resolution of the video you are trying to loop.\n",
        "Also, the output video will have the same frame rate and resolution as the input video, if you want to change it you need to adjust the output_fps and output_size variables accordingly.\n",
        "\n",
        "It's always advisable to read the terms and conditions and the license of the videos before using them. Some of them may have limitations in terms of commercial usage, some may need attribution and others may be completely free to use."
      ]
    },
    {
      "cell_type": "markdown",
      "metadata": {
        "id": "zmjdGRMRzRy0"
      },
      "source": [
        "In this code, you need to replace 'video.mp4' with the actual name of the video you want to view. This code is going to read the video frames, display it on the window, and you can use the 'q' key to close the window.\n",
        "\n",
        "Please keep in mind that Google Colab's virtual environment has some limitations on displaying videos. You might not be able to play videos with high resolution or high frame rate."
      ]
    },
    {
      "cell_type": "markdown",
      "metadata": {
        "id": "NBnf-jnKBnLm"
      },
      "source": [
        "Now the final step which is to change the audio of the video with the newly generated audio\n"
      ]
    },
    {
      "cell_type": "code",
      "execution_count": null,
      "metadata": {
        "colab": {
          "base_uri": "https://localhost:8080/"
        },
        "id": "IHr4IdO_BmkO",
        "outputId": "22642cd2-a14c-44d6-800a-823e6c60d9cd"
      },
      "outputs": [
        {
          "output_type": "stream",
          "name": "stdout",
          "text": [
            "ffmpeg version 4.2.7-0ubuntu0.1 Copyright (c) 2000-2022 the FFmpeg developers\n",
            "  built with gcc 9 (Ubuntu 9.4.0-1ubuntu1~20.04.1)\n",
            "  configuration: --prefix=/usr --extra-version=0ubuntu0.1 --toolchain=hardened --libdir=/usr/lib/x86_64-linux-gnu --incdir=/usr/include/x86_64-linux-gnu --arch=amd64 --enable-gpl --disable-stripping --enable-avresample --disable-filter=resample --enable-avisynth --enable-gnutls --enable-ladspa --enable-libaom --enable-libass --enable-libbluray --enable-libbs2b --enable-libcaca --enable-libcdio --enable-libcodec2 --enable-libflite --enable-libfontconfig --enable-libfreetype --enable-libfribidi --enable-libgme --enable-libgsm --enable-libjack --enable-libmp3lame --enable-libmysofa --enable-libopenjpeg --enable-libopenmpt --enable-libopus --enable-libpulse --enable-librsvg --enable-librubberband --enable-libshine --enable-libsnappy --enable-libsoxr --enable-libspeex --enable-libssh --enable-libtheora --enable-libtwolame --enable-libvidstab --enable-libvorbis --enable-libvpx --enable-libwavpack --enable-libwebp --enable-libx265 --enable-libxml2 --enable-libxvid --enable-libzmq --enable-libzvbi --enable-lv2 --enable-omx --enable-openal --enable-opencl --enable-opengl --enable-sdl2 --enable-libdc1394 --enable-libdrm --enable-libiec61883 --enable-nvenc --enable-chromaprint --enable-frei0r --enable-libx264 --enable-shared\n",
            "  libavutil      56. 31.100 / 56. 31.100\n",
            "  libavcodec     58. 54.100 / 58. 54.100\n",
            "  libavformat    58. 29.100 / 58. 29.100\n",
            "  libavdevice    58.  8.100 / 58.  8.100\n",
            "  libavfilter     7. 57.100 /  7. 57.100\n",
            "  libavresample   4.  0.  0 /  4.  0.  0\n",
            "  libswscale      5.  5.100 /  5.  5.100\n",
            "  libswresample   3.  5.100 /  3.  5.100\n",
            "  libpostproc    55.  5.100 / 55.  5.100\n",
            "Input #0, mov,mp4,m4a,3gp,3g2,mj2, from 'output.mp4':\n",
            "  Metadata:\n",
            "    major_brand     : isom\n",
            "    minor_version   : 512\n",
            "    compatible_brands: isomiso2avc1mp41\n",
            "    encoder         : Lavf58.29.100\n",
            "  Duration: 01:00:00.08, start: 0.000000, bitrate: 17601 kb/s\n",
            "    Stream #0:0(und): Video: h264 (High) (avc1 / 0x31637661), yuv420p(tv, bt709), 4096x2160, 17599 kb/s, 25 fps, 25 tbr, 12800 tbn, 50 tbc (default)\n",
            "    Metadata:\n",
            "      handler_name    : L-SMASH Video Handler\n",
            "Input #1, mp3, from 'output.mp3':\n",
            "  Metadata:\n",
            "    encoder         : Lavf58.29.100\n",
            "  Duration: 01:00:00.02, start: 0.023021, bitrate: 128 kb/s\n",
            "    Stream #1:0: Audio: mp3, 48000 Hz, stereo, fltp, 128 kb/s\n",
            "    Metadata:\n",
            "      encoder         : Lavc58.54\n",
            "Output #0, mp4, to 'outputed_video.mp4':\n",
            "  Metadata:\n",
            "    major_brand     : isom\n",
            "    minor_version   : 512\n",
            "    compatible_brands: isomiso2avc1mp41\n",
            "    encoder         : Lavf58.29.100\n",
            "    Stream #0:0(und): Video: h264 (High) (avc1 / 0x31637661), yuv420p(tv, bt709), 4096x2160, q=2-31, 17599 kb/s, 25 fps, 25 tbr, 12800 tbn, 12800 tbc (default)\n",
            "    Metadata:\n",
            "      handler_name    : L-SMASH Video Handler\n",
            "    Stream #0:1: Audio: mp3 (mp4a / 0x6134706D), 48000 Hz, stereo, fltp, 128 kb/s\n",
            "    Metadata:\n",
            "      encoder         : Lavc58.54\n",
            "Stream mapping:\n",
            "  Stream #0:0 -> #0:0 (copy)\n",
            "  Stream #1:0 -> #0:1 (copy)\n",
            "Press [q] to stop, [?] for help\n",
            "frame=90002 fps=1961 q=-1.0 Lsize= 7793524kB time=00:59:59.97 bitrate=17734.7kbits/s speed=78.4x    \n",
            "video:7734145kB audio:56250kB subtitle:0kB other streams:0kB global headers:0kB muxing overhead: 0.040150%\n"
          ]
        }
      ],
      "source": [
        "!ffmpeg -i output.mp4 -i output.mp3 -map 0:v -map 1:a -c copy -shortest outputed_video.mp4\n"
      ]
    },
    {
      "cell_type": "code",
      "source": [
        "!ffmpeg -i output.mp4 -i output.wav -acodec pcm_s16le -map 0:v -map 1:a -c:v copy -c:a aac -strict experimental output_video.mp4"
      ],
      "metadata": {
        "colab": {
          "base_uri": "https://localhost:8080/"
        },
        "id": "SIRMgSgciXDt",
        "outputId": "1e724442-5ab8-434e-e8c8-5beaa4a5775e"
      },
      "execution_count": null,
      "outputs": [
        {
          "output_type": "stream",
          "name": "stdout",
          "text": [
            "ffmpeg version 4.2.7-0ubuntu0.1 Copyright (c) 2000-2022 the FFmpeg developers\n",
            "  built with gcc 9 (Ubuntu 9.4.0-1ubuntu1~20.04.1)\n",
            "  configuration: --prefix=/usr --extra-version=0ubuntu0.1 --toolchain=hardened --libdir=/usr/lib/x86_64-linux-gnu --incdir=/usr/include/x86_64-linux-gnu --arch=amd64 --enable-gpl --disable-stripping --enable-avresample --disable-filter=resample --enable-avisynth --enable-gnutls --enable-ladspa --enable-libaom --enable-libass --enable-libbluray --enable-libbs2b --enable-libcaca --enable-libcdio --enable-libcodec2 --enable-libflite --enable-libfontconfig --enable-libfreetype --enable-libfribidi --enable-libgme --enable-libgsm --enable-libjack --enable-libmp3lame --enable-libmysofa --enable-libopenjpeg --enable-libopenmpt --enable-libopus --enable-libpulse --enable-librsvg --enable-librubberband --enable-libshine --enable-libsnappy --enable-libsoxr --enable-libspeex --enable-libssh --enable-libtheora --enable-libtwolame --enable-libvidstab --enable-libvorbis --enable-libvpx --enable-libwavpack --enable-libwebp --enable-libx265 --enable-libxml2 --enable-libxvid --enable-libzmq --enable-libzvbi --enable-lv2 --enable-omx --enable-openal --enable-opencl --enable-opengl --enable-sdl2 --enable-libdc1394 --enable-libdrm --enable-libiec61883 --enable-nvenc --enable-chromaprint --enable-frei0r --enable-libx264 --enable-shared\n",
            "  libavutil      56. 31.100 / 56. 31.100\n",
            "  libavcodec     58. 54.100 / 58. 54.100\n",
            "  libavformat    58. 29.100 / 58. 29.100\n",
            "  libavdevice    58.  8.100 / 58.  8.100\n",
            "  libavfilter     7. 57.100 /  7. 57.100\n",
            "  libavresample   4.  0.  0 /  4.  0.  0\n",
            "  libswscale      5.  5.100 /  5.  5.100\n",
            "  libswresample   3.  5.100 /  3.  5.100\n",
            "  libpostproc    55.  5.100 / 55.  5.100\n",
            "Input #0, mov,mp4,m4a,3gp,3g2,mj2, from 'output.mp4':\n",
            "  Metadata:\n",
            "    major_brand     : isom\n",
            "    minor_version   : 512\n",
            "    compatible_brands: isomiso2avc1mp41\n",
            "    encoder         : Lavf58.29.100\n",
            "  Duration: 01:00:00.08, start: 0.000000, bitrate: 4759 kb/s\n",
            "    Stream #0:0(und): Video: h264 (High) (avc1 / 0x31637661), yuv420p(tv, bt709), 1920x1080 [SAR 1:1 DAR 16:9], 4493 kb/s, 29.89 fps, 29.97 tbr, 30k tbn, 59.94 tbc (default)\n",
            "    Metadata:\n",
            "      handler_name    : L-SMASH Video Handler\n",
            "    Stream #0:1(und): Audio: aac (LC) (mp4a / 0x6134706D), 48000 Hz, stereo, fltp, 256 kb/s (default)\n",
            "    Metadata:\n",
            "      handler_name    : L-SMASH Audio Handler\n",
            "\u001b[0;33mGuessed Channel Layout for Input Stream #1.0 : stereo\n",
            "\u001b[0mInput #1, wav, from 'output.wav':\n",
            "  Duration: 00:01:18.96, bitrate: 3072 kb/s\n",
            "    Stream #1:0: Audio: pcm_s32le ([1][0][0][0] / 0x0001), 48000 Hz, stereo, s32, 3072 kb/s\n",
            "File 'output_video.mp4' already exists. Overwrite ? [y/N] y\n",
            "Stream mapping:\n",
            "  Stream #0:0 -> #0:0 (copy)\n",
            "  Stream #1:0 -> #0:1 (pcm_s32le (native) -> aac (native))\n",
            "Press [q] to stop, [?] for help\n",
            "Output #0, mp4, to 'output_video.mp4':\n",
            "  Metadata:\n",
            "    major_brand     : isom\n",
            "    minor_version   : 512\n",
            "    compatible_brands: isomiso2avc1mp41\n",
            "    encoder         : Lavf58.29.100\n",
            "    Stream #0:0(und): Video: h264 (High) (avc1 / 0x31637661), yuv420p(tv, bt709), 1920x1080 [SAR 1:1 DAR 16:9], q=2-31, 4493 kb/s, 29.89 fps, 29.97 tbr, 30k tbn, 30k tbc (default)\n",
            "    Metadata:\n",
            "      handler_name    : L-SMASH Video Handler\n",
            "    Stream #0:1: Audio: aac (LC) (mp4a / 0x6134706D), 48000 Hz, stereo, fltp, 128 kb/s\n",
            "    Metadata:\n",
            "      encoder         : Lavc58.54.100 aac\n",
            "frame=107623 fps=12518 q=-1.0 Lsize= 1977515kB time=00:59:59.97 bitrate=4500.0kbits/s speed= 419x    \n",
            "video:1974928kB audio:1237kB subtitle:0kB other streams:0kB global headers:0kB muxing overhead: 0.068307%\n",
            "\u001b[1;36m[aac @ 0x561689b3a900] \u001b[0mQavg: 196.674\n"
          ]
        }
      ]
    },
    {
      "cell_type": "markdown",
      "metadata": {
        "id": "P4JI5kl9zkAN"
      },
      "source": [
        "# Pushing a Video to youtube:"
      ]
    },
    {
      "cell_type": "markdown",
      "metadata": {
        "id": "XLjjssflz_Kf"
      },
      "source": [
        "You can use the \"google-auth\" and \"google-api-python-client\" libraries in Python to connect to a YouTube channel and perform various actions such as uploading videos, retrieving video information, and managing playlists.\n",
        "\n",
        "Here is an example of how you can use these libraries to connect to a YouTube channel:"
      ]
    },
    {
      "cell_type": "code",
      "execution_count": null,
      "metadata": {
        "colab": {
          "base_uri": "https://localhost:8080/"
        },
        "id": "Cw_h6Cv6zi9r",
        "outputId": "081105eb-4f0f-4fa5-82e8-64622bba3029"
      },
      "outputs": [
        {
          "name": "stdout",
          "output_type": "stream",
          "text": [
            "Looking in indexes: https://pypi.org/simple, https://us-python.pkg.dev/colab-wheels/public/simple/\n",
            "Requirement already satisfied: google-auth in /usr/local/lib/python3.8/dist-packages (2.16.0)\n",
            "Requirement already satisfied: google-auth-oauthlib in /usr/local/lib/python3.8/dist-packages (0.4.6)\n",
            "Requirement already satisfied: google-auth-httplib2 in /usr/local/lib/python3.8/dist-packages (0.1.0)\n",
            "Requirement already satisfied: google-api-python-client in /usr/local/lib/python3.8/dist-packages (2.70.0)\n",
            "Requirement already satisfied: six>=1.9.0 in /usr/local/lib/python3.8/dist-packages (from google-auth) (1.15.0)\n",
            "Requirement already satisfied: pyasn1-modules>=0.2.1 in /usr/local/lib/python3.8/dist-packages (from google-auth) (0.2.8)\n",
            "Requirement already satisfied: cachetools<6.0,>=2.0.0 in /usr/local/lib/python3.8/dist-packages (from google-auth) (5.2.1)\n",
            "Requirement already satisfied: rsa<5,>=3.1.4 in /usr/local/lib/python3.8/dist-packages (from google-auth) (4.9)\n",
            "Requirement already satisfied: requests-oauthlib>=0.7.0 in /usr/local/lib/python3.8/dist-packages (from google-auth-oauthlib) (1.3.1)\n",
            "Requirement already satisfied: httplib2>=0.15.0 in /usr/local/lib/python3.8/dist-packages (from google-auth-httplib2) (0.17.4)\n",
            "Requirement already satisfied: google-api-core!=2.0.*,!=2.1.*,!=2.2.*,!=2.3.0,<3.0.0dev,>=1.31.5 in /usr/local/lib/python3.8/dist-packages (from google-api-python-client) (2.11.0)\n",
            "Requirement already satisfied: uritemplate<5,>=3.0.1 in /usr/local/lib/python3.8/dist-packages (from google-api-python-client) (4.1.1)\n",
            "Requirement already satisfied: googleapis-common-protos<2.0dev,>=1.56.2 in /usr/local/lib/python3.8/dist-packages (from google-api-core!=2.0.*,!=2.1.*,!=2.2.*,!=2.3.0,<3.0.0dev,>=1.31.5->google-api-python-client) (1.58.0)\n",
            "Requirement already satisfied: requests<3.0.0dev,>=2.18.0 in /usr/local/lib/python3.8/dist-packages (from google-api-core!=2.0.*,!=2.1.*,!=2.2.*,!=2.3.0,<3.0.0dev,>=1.31.5->google-api-python-client) (2.25.1)\n",
            "Requirement already satisfied: protobuf!=3.20.0,!=3.20.1,!=4.21.0,!=4.21.1,!=4.21.2,!=4.21.3,!=4.21.4,!=4.21.5,<5.0.0dev,>=3.19.5 in /usr/local/lib/python3.8/dist-packages (from google-api-core!=2.0.*,!=2.1.*,!=2.2.*,!=2.3.0,<3.0.0dev,>=1.31.5->google-api-python-client) (3.19.6)\n",
            "Requirement already satisfied: pyasn1<0.5.0,>=0.4.6 in /usr/local/lib/python3.8/dist-packages (from pyasn1-modules>=0.2.1->google-auth) (0.4.8)\n",
            "Requirement already satisfied: oauthlib>=3.0.0 in /usr/local/lib/python3.8/dist-packages (from requests-oauthlib>=0.7.0->google-auth-oauthlib) (3.2.2)\n",
            "Requirement already satisfied: urllib3<1.27,>=1.21.1 in /usr/local/lib/python3.8/dist-packages (from requests<3.0.0dev,>=2.18.0->google-api-core!=2.0.*,!=2.1.*,!=2.2.*,!=2.3.0,<3.0.0dev,>=1.31.5->google-api-python-client) (1.24.3)\n",
            "Requirement already satisfied: chardet<5,>=3.0.2 in /usr/local/lib/python3.8/dist-packages (from requests<3.0.0dev,>=2.18.0->google-api-core!=2.0.*,!=2.1.*,!=2.2.*,!=2.3.0,<3.0.0dev,>=1.31.5->google-api-python-client) (4.0.0)\n",
            "Requirement already satisfied: idna<3,>=2.5 in /usr/local/lib/python3.8/dist-packages (from requests<3.0.0dev,>=2.18.0->google-api-core!=2.0.*,!=2.1.*,!=2.2.*,!=2.3.0,<3.0.0dev,>=1.31.5->google-api-python-client) (2.10)\n",
            "Requirement already satisfied: certifi>=2017.4.17 in /usr/local/lib/python3.8/dist-packages (from requests<3.0.0dev,>=2.18.0->google-api-core!=2.0.*,!=2.1.*,!=2.2.*,!=2.3.0,<3.0.0dev,>=1.31.5->google-api-python-client) (2022.12.7)\n"
          ]
        }
      ],
      "source": [
        "!pip install google-auth google-auth-oauthlib google-auth-httplib2 google-api-python-client"
      ]
    },
    {
      "cell_type": "code",
      "execution_count": null,
      "metadata": {
        "colab": {
          "base_uri": "https://localhost:8080/"
        },
        "id": "psuNnR41UD8Q",
        "outputId": "074501f9-a953-4b45-a464-7be5f8ea4d13"
      },
      "outputs": [
        {
          "name": "stdout",
          "output_type": "stream",
          "text": [
            "Looking in indexes: https://pypi.org/simple, https://us-python.pkg.dev/colab-wheels/public/simple/\n",
            "Collecting ffmpeg-python\n",
            "  Downloading ffmpeg_python-0.2.0-py3-none-any.whl (25 kB)\n",
            "Requirement already satisfied: future in /usr/local/lib/python3.8/dist-packages (from ffmpeg-python) (0.16.0)\n",
            "Installing collected packages: ffmpeg-python\n",
            "Successfully installed ffmpeg-python-0.2.0\n"
          ]
        }
      ],
      "source": [
        "!pip install ffmpeg-python\n"
      ]
    },
    {
      "cell_type": "code",
      "execution_count": null,
      "metadata": {
        "colab": {
          "base_uri": "https://localhost:8080/"
        },
        "id": "cOt26KpYUFv2",
        "outputId": "b38e0eb3-be61-45fc-f5f3-abfa0f8f2dfd"
      },
      "outputs": [
        {
          "name": "stdout",
          "output_type": "stream",
          "text": [
            "ffmpeg version 4.2.7-0ubuntu0.1 Copyright (c) 2000-2022 the FFmpeg developers\n",
            "  built with gcc 9 (Ubuntu 9.4.0-1ubuntu1~20.04.1)\n",
            "  configuration: --prefix=/usr --extra-version=0ubuntu0.1 --toolchain=hardened --libdir=/usr/lib/x86_64-linux-gnu --incdir=/usr/include/x86_64-linux-gnu --arch=amd64 --enable-gpl --disable-stripping --enable-avresample --disable-filter=resample --enable-avisynth --enable-gnutls --enable-ladspa --enable-libaom --enable-libass --enable-libbluray --enable-libbs2b --enable-libcaca --enable-libcdio --enable-libcodec2 --enable-libflite --enable-libfontconfig --enable-libfreetype --enable-libfribidi --enable-libgme --enable-libgsm --enable-libjack --enable-libmp3lame --enable-libmysofa --enable-libopenjpeg --enable-libopenmpt --enable-libopus --enable-libpulse --enable-librsvg --enable-librubberband --enable-libshine --enable-libsnappy --enable-libsoxr --enable-libspeex --enable-libssh --enable-libtheora --enable-libtwolame --enable-libvidstab --enable-libvorbis --enable-libvpx --enable-libwavpack --enable-libwebp --enable-libx265 --enable-libxml2 --enable-libxvid --enable-libzmq --enable-libzvbi --enable-lv2 --enable-omx --enable-openal --enable-opencl --enable-opengl --enable-sdl2 --enable-libdc1394 --enable-libdrm --enable-libiec61883 --enable-nvenc --enable-chromaprint --enable-frei0r --enable-libx264 --enable-shared\n",
            "  libavutil      56. 31.100 / 56. 31.100\n",
            "  libavcodec     58. 54.100 / 58. 54.100\n",
            "  libavformat    58. 29.100 / 58. 29.100\n",
            "  libavdevice    58.  8.100 / 58.  8.100\n",
            "  libavfilter     7. 57.100 /  7. 57.100\n",
            "  libavresample   4.  0.  0 /  4.  0.  0\n",
            "  libswscale      5.  5.100 /  5.  5.100\n",
            "  libswresample   3.  5.100 /  3.  5.100\n",
            "  libpostproc    55.  5.100 / 55.  5.100\n",
            "Input #0, mov,mp4,m4a,3gp,3g2,mj2, from '/content/drive/MyDrive/output_video.mp4':\n",
            "  Metadata:\n",
            "    major_brand     : isom\n",
            "    minor_version   : 512\n",
            "    compatible_brands: isomiso2avc1mp41\n",
            "    encoder         : Lavf58.29.100\n",
            "  Duration: 01:00:00.07, start: 0.000000, bitrate: 2828 kb/s\n",
            "    Stream #0:0(und): Video: h264 (High) (avc1 / 0x31637661), yuv420p(tv, bt709), 1920x1080, 2693 kb/s, 30 fps, 30 tbr, 15360 tbn, 60 tbc (default)\n",
            "    Metadata:\n",
            "      handler_name    : L-SMASH Video Handler\n",
            "    Stream #0:1(und): Audio: mp3 (mp4a / 0x6134706D), 48000 Hz, stereo, fltp, 128 kb/s (default)\n",
            "    Metadata:\n",
            "      handler_name    : SoundHandler\n",
            "Stream mapping:\n",
            "  Stream #0:0 -> #0:0 (h264 (native) -> h264 (libx264))\n",
            "  Stream #0:1 -> #0:1 (mp3 (mp3float) -> aac (native))\n",
            "Press [q] to stop, [?] for help\n",
            "\u001b[1;36m[libx264 @ 0x561c66b1cd00] \u001b[0musing cpu capabilities: MMX2 SSE2Fast SSSE3 SSE4.2 AVX FMA3 BMI2 AVX2\n",
            "\u001b[1;36m[libx264 @ 0x561c66b1cd00] \u001b[0mprofile High, level 4.0\n",
            "\u001b[1;36m[libx264 @ 0x561c66b1cd00] \u001b[0m264 - core 155 r2917 0a84d98 - H.264/MPEG-4 AVC codec - Copyleft 2003-2018 - http://www.videolan.org/x264.html - options: cabac=1 ref=3 deblock=1:0:0 analyse=0x3:0x113 me=hex subme=7 psy=1 psy_rd=1.00:0.00 mixed_ref=1 me_range=16 chroma_me=1 trellis=1 8x8dct=1 cqm=0 deadzone=21,11 fast_pskip=1 chroma_qp_offset=-2 threads=3 lookahead_threads=1 sliced_threads=0 nr=0 decimate=1 interlaced=0 bluray_compat=0 constrained_intra=0 bframes=3 b_pyramid=2 b_adapt=1 b_bias=0 direct=1 weightb=1 open_gop=0 weightp=2 keyint=250 keyint_min=25 scenecut=40 intra_refresh=0 rc_lookahead=40 rc=crf mbtree=1 crf=23.0 qcomp=0.60 qpmin=0 qpmax=69 qpstep=4 ip_ratio=1.40 aq=1:1.00\n",
            "Output #0, mp4, to 'output.mp4':\n",
            "  Metadata:\n",
            "    major_brand     : isom\n",
            "    minor_version   : 512\n",
            "    compatible_brands: isomiso2avc1mp41\n",
            "    encoder         : Lavf58.29.100\n",
            "    Stream #0:0(und): Video: h264 (libx264) (avc1 / 0x31637661), yuv420p, 1920x1080, q=-1--1, 2000 kb/s, 30 fps, 15360 tbn, 30 tbc (default)\n",
            "    Metadata:\n",
            "      handler_name    : L-SMASH Video Handler\n",
            "      encoder         : Lavc58.54.100 libx264\n",
            "    Side data:\n",
            "      cpb: bitrate max/min/avg: 0/0/2000000 buffer size: 0 vbv_delay: -1\n",
            "    Stream #0:1(und): Audio: aac (LC) (mp4a / 0x6134706D), 48000 Hz, stereo, fltp, 128 kb/s (default)\n",
            "    Metadata:\n",
            "      handler_name    : SoundHandler\n",
            "      encoder         : Lavc58.54.100 aac\n"
          ]
        }
      ],
      "source": [
        "!ffmpeg -i \"/content/drive/MyDrive/output_video.mp4\" -c:v libx264 -crf 23 -b:v 2000k -c:a aac -b:a 128k output.mp4"
      ]
    },
    {
      "cell_type": "code",
      "execution_count": null,
      "metadata": {
        "colab": {
          "base_uri": "https://localhost:8080/"
        },
        "id": "h731k-0UES12",
        "outputId": "10fbf0dc-e3ae-4cfd-bc13-a534ef76ba83"
      },
      "outputs": [
        {
          "output_type": "stream",
          "name": "stdout",
          "text": [
            "Mounted at /content/drive\n"
          ]
        }
      ],
      "source": [
        "from google.colab import drive\n",
        "drive.mount('/content/drive')"
      ]
    }
  ],
  "metadata": {
    "accelerator": "GPU",
    "colab": {
      "collapsed_sections": [
        "Q9hPvsx_zDbR"
      ],
      "provenance": []
    },
    "gpuClass": "standard",
    "kernelspec": {
      "display_name": "Python 3",
      "name": "python3"
    },
    "language_info": {
      "name": "python"
    }
  },
  "nbformat": 4,
  "nbformat_minor": 0
}